<?xml version="1.0" encoding="utf-8"?>
<!-- Generator: Adobe Illustrator 19.2.1, SVG Export Plug-In . SVG Version: 6.00 Build 0)  -->
<svg version="1.1" id="Layer_1" xmlns="http://www.w3.org/2000/svg" xmlns:xlink="http://www.w3.org/1999/xlink" x="0px" y="0px"
	 viewBox="0 0 200 200" style="enable-background:new 0 0 200 200;" xml:space="preserve">
<style type="text/css">
	.st0{fill:#3CA5DD;}
	.st1{fill:none;stroke:#FFFFFF;stroke-width:6;stroke-miterlimit:10;}
</style>
<rect x="0.3" y="-0.3" class="st0" width="199.8" height="199.8"/>
<g>
	<circle class="st1" cx="100" cy="100.1" r="66.4"/>
	<path class="st1" d="M99.5,98.6"/>
	<path class="st1" d="M164.2,85.5"/>
	<path class="st1" d="M100,100.1c0-26.7,21.2-48.5,45.5-48.5"/>
	<path class="st1" d="M61.2,105.7c0-37.6,29.7-67.1,63.8-67.1"/>
	<path class="st1" d="M100,100.1c23.2,13.4,31.4,42.6,19.3,63.7"/>
	<path class="st1" d="M116.7,61.3c32.3,18.6,43.7,59.4,26.8,88.7"/>
	<path class="st1" d="M100,100.1C76.9,113.5,47.4,106,35.3,85"/>
	<path class="st1" d="M124.8,131.8c-32.5,18.8-73.5,6.3-90.6-23.2"/>
</g>
</svg>
