<?xml version="1.0" encoding="utf-8"?>
<!-- Generator: Adobe Illustrator 19.2.1, SVG Export Plug-In . SVG Version: 6.00 Build 0)  -->
<svg version="1.1" id="Layer_1" xmlns="http://www.w3.org/2000/svg" xmlns:xlink="http://www.w3.org/1999/xlink" x="0px" y="0px"
	 viewBox="0 0 200 200" style="enable-background:new 0 0 200 200;" xml:space="preserve">
<style type="text/css">
	.st0{fill:#22B573;}
	.st1{fill:none;stroke:#FFFFFF;stroke-width:6;stroke-miterlimit:10;}
</style>
<rect class="st0" width="200" height="200"/>
<g>
	<line class="st1" x1="79.2" y1="119.6" x2="119.8" y2="78.9"/>
	<line class="st1" x1="77.3" y1="101.7" x2="96.6" y2="121"/>
	<line class="st1" x1="89.1" y1="90.2" x2="108.4" y2="109.6"/>
	<line class="st1" x1="100.2" y1="78.4" x2="119.5" y2="97.8"/>
	<line class="st1" x1="109.4" y1="39.6" x2="160.4" y2="90.7"/>
	<line class="st1" x1="38.6" y1="110.4" x2="90.8" y2="162.4"/>
	<path class="st1" d="M46.2,91.9c13.7-27.2,39.4-47.2,70.2-53.2c9.5-1.8,19.3-1.1,28.7,1.4l11.9,3.9l1,2.9c2.2,6.5,3.6,13.2,4,20
		c0.4,6.2,0.2,12.6-0.7,17.5c-5.2,28.6-22.6,53-46.6,67.6C93.3,164.8,67,166.2,44,156.7h0l-0.4-1C35.6,135,36.2,111.7,46.2,91.9z"/>
</g>
</svg>
