<?xml version="1.0" encoding="utf-8"?>
<!-- Generator: Adobe Illustrator 19.2.1, SVG Export Plug-In . SVG Version: 6.00 Build 0)  -->
<svg version="1.1" id="Layer_1" xmlns="http://www.w3.org/2000/svg" xmlns:xlink="http://www.w3.org/1999/xlink" x="0px" y="0px"
	 viewBox="0 0 200 200" style="enable-background:new 0 0 200 200;" xml:space="preserve">
<style type="text/css">
	.st0{fill:#4B91CD;}
	.st1{fill:none;stroke:#FFFFFF;stroke-width:6;stroke-linecap:round;stroke-miterlimit:10;}
	.st2{fill:none;stroke:#FFFFFF;stroke-width:6;stroke-linecap:round;stroke-linejoin:round;stroke-miterlimit:10;}
</style>
<rect x="0.2" class="st0" width="199.8" height="199.8"/>
<g>
	<line class="st1" x1="69.2" y1="91.9" x2="112.6" y2="70.2"/>
	<line class="st1" x1="87.1" y1="109.2" x2="119.5" y2="78"/>
	<line class="st1" x1="105.1" y1="127.7" x2="127" y2="84.7"/>
	<path class="st2" d="M145.4,79.8L118.7,53l19.7-19.7c2.1-2.1,5.5-2.1,7.6,0l19.2,19.2c2.1,2.1,2.1,5.5,0,7.6L145.4,79.8z"/>
	<path class="st1" d="M142,77.2l-34.4,86.4c-0.1-3.1-0.8-7.3-4-10c-4.8-4.2-10.7-1-14.8-5.2c-3.9-3.9-0.3-8.4-4.3-12.9
		c-4.1-4.7-9.5-1.6-14.2-6.5c-4.2-4.3-1.1-8.1-5.3-12.9c-4.7-5.5-10.9-2-14.5-7.8c-3.4-5.3-1.2-10.7-5.3-14.9
		c-2.9-2.9-7.2-3.5-10.5-3.6L121,56.2"/>
</g>
</svg>
