<?xml version="1.0" encoding="utf-8"?>
<!-- Generator: Adobe Illustrator 19.2.1, SVG Export Plug-In . SVG Version: 6.00 Build 0)  -->
<svg version="1.1" id="Layer_1" xmlns="http://www.w3.org/2000/svg" xmlns:xlink="http://www.w3.org/1999/xlink" x="0px" y="0px"
	 viewBox="0 0 200 200" style="enable-background:new 0 0 200 200;" xml:space="preserve">
<style type="text/css">
	.st0{fill:#8F4198;}
	.st1{fill:none;stroke:#FFFFFF;stroke-width:6;stroke-miterlimit:10;}
	.st2{clip-path:url(#SVGID_2_);fill:none;stroke:#FFFFFF;stroke-width:6;stroke-miterlimit:10;}
</style>
<rect class="st0" width="200" height="200"/>
<circle class="st1" cx="100" cy="100.2" r="66.5"/>
<polygon class="st1" points="99.8,75.7 120.4,87.5 120.4,111.2 99.8,123 79.3,111.2 79.3,87.5 "/>
<polygon class="st1" points="99.8,75.7 120.4,87.5 120.4,111.2 99.8,123 79.3,111.2 79.3,87.5 "/>
<g>
	<polygon class="st1" points="99.8,75.7 120.4,87.5 120.4,111.2 99.8,123 79.3,111.2 79.3,87.5 	"/>
	<g>
		<defs>
			<circle id="SVGID_1_" cx="99.9" cy="99.6" r="66.5"/>
		</defs>
		<clipPath id="SVGID_2_">
			<use xlink:href="#SVGID_1_"  style="overflow:visible;"/>
		</clipPath>
		<polygon class="st2" points="79.4,184.8 79.4,161.1 99.9,149.3 120.4,161.1 120.4,184.8 99.9,196.7 		"/>
		<polygon class="st2" points="15.5,148 15.5,124.3 36,112.5 56.5,124.3 56.5,148 36,159.8 		"/>
		<polygon class="st2" points="15.7,74.6 15.7,50.9 36.3,39.1 56.8,50.9 56.8,74.6 36.3,86.5 		"/>
		<polygon class="st2" points="79.6,37.6 79.6,13.9 100.1,2 120.7,13.9 120.7,37.6 100.1,49.4 		"/>
		<polygon class="st2" points="143,74.4 143,50.7 163.6,38.8 184.1,50.7 184.1,74.4 163.6,86.2 		"/>
		<polygon class="st2" points="143,148.2 143,124.5 163.6,112.7 184.1,124.5 184.1,148.2 163.6,160.1 		"/>
	</g>
</g>
</svg>
